<?xml version="1.0" ?><!DOCTYPE svg  PUBLIC '-//W3C//DTD SVG 1.1//EN'  'http://www.w3.org/Graphics/SVG/1.1/DTD/svg11.dtd'><svg height="512px" style="enable-background:new 0 0 512 512;" version="1.1" viewBox="0 0 512 512" width="512px" xml:space="preserve" xmlns="http://www.w3.org/2000/svg" xmlns:xlink="http://www.w3.org/1999/xlink"><g id="_x34_23_x2C__Console_x2C__dj_x2C__mixer_x2C__music_x2C__studio"><g><path d="M69.628,168.079H419.81c1.825,0,3.301,1.502,3.301,3.3v16.688    c0,1.823-1.476,3.299-3.301,3.299H69.628c-1.798,0-3.274-1.476-3.274-3.299v-16.688C66.354,169.581,67.83,168.079,69.628,168.079     M83.391,196.009c3.65,0,6.949,1.476,9.337,3.862c2.388,2.389,3.89,5.716,3.89,9.363c0,3.65-1.502,6.95-3.89,9.338l-0.214,0.215    c-1.611,1.529-3.596,2.684-5.822,3.246v16.34h16.742c1.823,0,3.299,1.502,3.299,3.301c0,1.824-1.476,3.299-3.299,3.299H86.691    v136.43c0,1.798-1.476,3.301-3.301,3.301c-1.823,0-3.299-1.503-3.299-3.301v-136.43H63.321c-1.797,0-3.299-1.475-3.299-3.299    c0-1.799,1.502-3.301,3.299-3.301h16.771v-16.34c-2.336-0.59-4.401-1.798-6.064-3.461c-2.388-2.388-3.864-5.688-3.864-9.338    c0-3.647,1.476-6.975,3.864-9.363l0.214-0.188C76.629,197.404,79.85,196.009,83.391,196.009z M137.024,196.009    c3.622,0,6.921,1.476,9.335,3.862c2.388,2.389,3.89,5.716,3.89,9.363c0,3.623-1.502,6.924-3.89,9.338    c-1.664,1.637-3.729,2.871-6.037,3.461v52.855h16.742c1.825,0,3.301,1.475,3.301,3.299c0,1.825-1.476,3.301-3.301,3.301h-16.742    v99.914c0,1.798-1.502,3.301-3.299,3.301c-1.825,0-3.301-1.503-3.301-3.301v-99.914h-16.768c-1.825,0-3.301-1.476-3.301-3.301    c0-1.824,1.476-3.299,3.301-3.299h16.768v-52.855c-2.333-0.59-4.401-1.798-6.036-3.461c-2.415-2.388-3.89-5.688-3.89-9.338    c0-3.647,1.476-6.975,3.862-9.363C130.047,197.484,133.375,196.009,137.024,196.009z M190.657,196.009    c3.648,0,6.949,1.476,9.337,3.862c2.388,2.389,3.864,5.716,3.864,9.363c0,3.623-1.476,6.95-3.864,9.338    c-1.637,1.663-3.729,2.871-6.036,3.461v91.623h16.74c1.825,0,3.301,1.477,3.301,3.301c0,1.798-1.476,3.301-3.301,3.301h-16.74    v61.145c0,1.798-1.504,3.301-3.301,3.301c-1.825,0-3.301-1.503-3.301-3.301v-61.145h-16.769c-1.825,0-3.299-1.503-3.299-3.301    c0-1.824,1.474-3.301,3.299-3.301h16.769v-91.623c-2.334-0.59-4.427-1.798-6.063-3.461l-0.188-0.188    c-2.281-2.389-3.676-5.607-3.676-9.15c0-3.647,1.476-6.975,3.864-9.363C183.682,197.484,187.008,196.009,190.657,196.009z     M244.289,196.009c3.649,0,6.949,1.476,9.337,3.862c2.388,2.389,3.863,5.716,3.863,9.363c0,3.65-1.475,6.95-3.863,9.338    l-0.214,0.215c-1.611,1.529-3.622,2.684-5.849,3.246v132.19h16.768c1.825,0,3.299,1.476,3.299,3.3    c0,1.798-1.474,3.273-3.299,3.273h-16.768v20.605c0,1.798-1.476,3.301-3.274,3.301c-1.823,0-3.299-1.503-3.299-3.301v-20.605    h-16.768c-1.825,0-3.301-1.476-3.301-3.273c0-1.824,1.476-3.3,3.301-3.3h16.768v-132.19c-2.335-0.59-4.427-1.798-6.064-3.461    c-2.388-2.388-3.864-5.688-3.864-9.338c0-3.647,1.476-6.975,3.864-9.363l0.214-0.188    C237.501,197.404,240.748,196.009,244.289,196.009z M297.895,196.009c3.649,0,6.949,1.476,9.337,3.862    c2.415,2.389,3.891,5.716,3.891,9.363c0,3.65-1.476,6.95-3.862,9.338c-1.638,1.663-3.73,2.871-6.064,3.461v93.422h16.769    c1.825,0,3.301,1.477,3.301,3.3c0,1.824-1.476,3.3-3.301,3.3h-16.769v59.348c0,1.798-1.476,3.301-3.301,3.301    c-1.797,0-3.299-1.503-3.299-3.301v-59.348h-16.742c-1.825,0-3.301-1.476-3.301-3.3c0-1.823,1.476-3.3,3.301-3.3h16.742v-93.422    c-2.308-0.59-4.375-1.824-6.036-3.461c-2.389-2.388-3.864-5.688-3.864-9.338c0-3.647,1.476-6.975,3.864-9.363    C290.945,197.484,294.246,196.009,297.895,196.009z M351.529,196.009c3.647,0,6.975,1.476,9.363,3.862    c2.388,2.389,3.863,5.716,3.863,9.363c0,3.623-1.476,6.95-3.863,9.338c-1.664,1.663-3.729,2.871-6.064,3.461v16.34h16.77    c1.797,0,3.299,1.502,3.299,3.301c0,1.824-1.502,3.299-3.299,3.299h-16.77v136.43c0,1.798-1.477,3.301-3.299,3.301    c-1.826,0-3.301-1.503-3.301-3.301v-136.43h-16.742c-1.824,0-3.299-1.475-3.299-3.299c0-1.799,1.475-3.301,3.299-3.301h16.742    v-16.34c-2.309-0.59-4.4-1.798-6.037-3.461l-0.188-0.188c-2.281-2.389-3.676-5.607-3.676-9.15c0-3.647,1.475-6.975,3.863-9.363    C344.58,197.484,347.879,196.009,351.529,196.009z M405.161,196.009c3.649,0,6.975,1.476,9.363,3.862    c2.388,2.389,3.863,5.716,3.863,9.363c0,3.65-1.476,6.95-3.863,9.338l-0.214,0.215c-1.609,1.529-3.622,2.684-5.849,3.246v108.285    h16.768c1.797,0,3.301,1.476,3.301,3.301c0,1.824-1.504,3.299-3.301,3.299h-16.768v44.484c0,1.798-1.477,3.301-3.301,3.301    c-1.825,0-3.301-1.503-3.301-3.301v-44.484h-16.741c-1.824,0-3.3-1.475-3.3-3.299c0-1.825,1.476-3.301,3.3-3.301h16.741V222.033    c-2.306-0.59-4.373-1.798-6.036-3.461c-2.415-2.414-3.891-5.715-3.891-9.338c0-3.647,1.502-6.975,3.891-9.363l0.188-0.188    C398.4,197.404,401.62,196.009,405.161,196.009z M73.92,131.59h18.943c1.797,0,3.299,1.477,3.299,3.3v18.915    c0,1.824-1.502,3.301-3.299,3.301H73.92c-1.825,0-3.3-1.477-3.3-3.301V134.89C70.62,133.066,72.095,131.59,73.92,131.59z     M127.552,131.59h18.917c1.823,0,3.299,1.477,3.299,3.3v18.915c0,1.824-1.476,3.301-3.299,3.301h-18.917    c-1.823,0-3.299-1.477-3.299-3.301V134.89C124.253,133.066,125.729,131.59,127.552,131.59z M181.186,131.59h18.915    c1.825,0,3.301,1.477,3.301,3.3v18.915c0,1.824-1.476,3.301-3.301,3.301h-18.915c-1.825,0-3.3-1.477-3.3-3.301V134.89    C177.886,133.066,179.361,131.59,181.186,131.59z M234.818,131.59h18.915c1.825,0,3.3,1.477,3.3,3.3v18.915    c0,1.824-1.476,3.301-3.3,3.301h-18.915c-1.825,0-3.301-1.477-3.301-3.301V134.89C231.518,133.066,232.994,131.59,234.818,131.59z     M288.45,131.59h18.917c1.822,0,3.299,1.477,3.299,3.3v18.915c0,1.824-1.477,3.301-3.299,3.301H288.45    c-1.823,0-3.299-1.477-3.299-3.301V134.89C285.151,133.066,286.627,131.59,288.45,131.59z M342.084,131.59h18.915    c1.825,0,3.301,1.477,3.301,3.3v18.915c0,1.824-1.476,3.301-3.301,3.301h-18.915c-1.824,0-3.301-1.477-3.301-3.301V134.89    C338.783,133.066,340.26,131.59,342.084,131.59z M395.69,131.59h18.94c1.825,0,3.301,1.477,3.301,3.3v18.915    c0,1.824-1.476,3.301-3.301,3.301h-18.94c-1.799,0-3.301-1.477-3.301-3.301V134.89C392.39,133.066,393.892,131.59,395.69,131.59z     M416.511,174.679H72.927v10.088h343.584V174.679z M88.086,204.54c-1.208-1.18-2.871-1.931-4.696-1.931    c-1.771,0-3.38,0.696-4.561,1.797l-0.133,0.134c-1.181,1.208-1.932,2.872-1.932,4.694c0,1.826,0.751,3.489,1.932,4.67    c1.179,1.18,2.816,1.932,4.613,1.959h0.081h0.081l0,0c1.744-0.027,3.301-0.698,4.481-1.799l0.134-0.16    c1.181-1.181,1.932-2.844,1.932-4.67C90.018,207.412,89.267,205.748,88.086,204.54z M141.718,204.54    c-1.207-1.18-2.871-1.931-4.694-1.931c-1.851,0-3.488,0.751-4.696,1.931c-1.181,1.208-1.932,2.872-1.932,4.694    c0,1.826,0.751,3.489,1.932,4.67c1.181,1.207,2.79,1.932,4.587,1.959h0.109h0.079c1.798-0.027,3.436-0.752,4.588-1.933    c1.208-1.207,1.958-2.87,1.958-4.696C143.65,207.412,142.899,205.748,141.718,204.54z M195.324,204.54    c-1.179-1.18-2.843-1.931-4.667-1.931c-1.852,0-3.489,0.751-4.696,1.931c-1.208,1.208-1.932,2.872-1.932,4.694    c0,1.771,0.672,3.382,1.799,4.563l0.133,0.134c1.181,1.153,2.818,1.905,4.589,1.933h0.107h0.081    c1.797-0.027,3.408-0.779,4.587-1.933c1.208-1.207,1.96-2.87,1.96-4.696C197.284,207.412,196.532,205.748,195.324,204.54z     M248.958,204.54c-1.181-1.18-2.844-1.931-4.669-1.931c-1.771,0-3.38,0.696-4.561,1.797l-0.133,0.134    c-1.207,1.208-1.932,2.872-1.932,4.694c0,1.826,0.725,3.489,1.932,4.67c1.179,1.18,2.79,1.932,4.587,1.959h0.107h0.081l0,0    c1.744-0.027,3.301-0.698,4.454-1.799l0.135-0.16c1.208-1.181,1.932-2.844,1.932-4.67    C250.89,207.412,250.166,205.748,248.958,204.54z M302.59,204.54c-1.181-1.18-2.844-1.931-4.695-1.931    c-1.823,0-3.486,0.751-4.668,1.931c-1.207,1.208-1.958,2.872-1.958,4.694c0,1.826,0.751,3.489,1.958,4.67    c1.153,1.207,2.79,1.932,4.589,1.959h0.079h0.108c1.771-0.027,3.406-0.779,4.587-1.959c1.208-1.181,1.933-2.844,1.933-4.67    C304.522,207.412,303.798,205.748,302.59,204.54z M356.223,204.54c-1.207-1.18-2.871-1.931-4.693-1.931    c-1.826,0-3.489,0.751-4.67,1.931c-1.207,1.208-1.959,2.872-1.959,4.694c0,1.771,0.699,3.382,1.799,4.563l0.16,0.134    c1.181,1.153,2.79,1.905,4.588,1.933h0.082h0.08c1.797-0.027,3.434-0.779,4.613-1.933c1.207-1.207,1.932-2.87,1.932-4.696    C358.154,207.412,357.403,205.748,356.223,204.54z M409.856,204.54c-1.207-1.18-2.871-1.931-4.695-1.931    c-1.771,0-3.38,0.696-4.562,1.797l-0.135,0.134c-1.179,1.208-1.932,2.872-1.932,4.694c0,1.826,0.753,3.489,1.932,4.67    c1.182,1.207,2.818,1.932,4.615,1.959h0.081h0.08l0,0c1.744-0.027,3.327-0.698,4.48-1.799l0.135-0.16    c1.181-1.181,1.932-2.844,1.932-4.67C411.788,207.412,411.037,205.748,409.856,204.54z M89.562,138.19H77.221v12.341h12.341    V138.19z M143.194,138.19h-12.341v12.341h12.341V138.19z M196.8,138.19h-12.314v12.341H196.8V138.19z M250.434,138.19h-12.315    v12.341h12.315V138.19z M304.066,138.19h-12.315v12.341h12.315V138.19z M357.698,138.19h-12.315v12.341h12.315V138.19z     M411.332,138.19h-12.343v12.341h12.343V138.19z M32.603,158.688c0,1.799-1.476,3.301-3.3,3.301c-1.825,0-3.301-1.502-3.301-3.301    v-50.439c0-7.352,3.006-14.031,7.861-18.861c4.857-4.855,11.538-7.861,18.862-7.861h146.062c1.823,0,3.299,1.477,3.299,3.301    c0,1.797-1.476,3.299-3.299,3.299H52.725c-5.528,0-10.544,2.255-14.192,5.877c-3.676,3.676-5.93,8.72-5.93,14.246V158.688z     M396.897,410.058c-1.825,0-3.3-1.476-3.3-3.301s1.475-3.301,3.3-3.301h36.997c5.527,0,10.572-2.279,14.194-5.902    c3.648-3.675,5.93-8.72,5.93-14.245c0-1.799,1.476-3.301,3.299-3.301c1.825,0,3.301,1.502,3.301,3.301    c0,7.377-3.004,14.058-7.861,18.888c-4.855,4.855-11.536,7.861-18.862,7.861H396.897z M50.899,418.454    c-1.823,0-3.299-1.476-3.299-3.299c0-1.825,1.476-3.301,3.299-3.301h300.924c1.825,0,3.301,1.476,3.301,3.301    c0,1.823-1.476,3.299-3.301,3.299H50.899z M227.119,430.474c-1.825,0-3.301-1.476-3.301-3.3s1.476-3.3,3.301-3.3h208.225    c1.825,0,3.301,1.476,3.301,3.3s-1.476,3.3-3.301,3.3H227.119z M456.646,430.474c-1.797,0-3.299-1.476-3.299-3.3    s1.502-3.3,3.299-3.3h26.053c1.797,0,3.3,1.476,3.3,3.3s-1.503,3.3-3.3,3.3H456.646z M39.041,430.099    c-1.797,0-3.299-1.476-3.299-3.3c0-1.798,1.502-3.3,3.299-3.3h98.68c1.825,0,3.301,1.502,3.301,3.3c0,1.824-1.476,3.3-3.301,3.3    H39.041z M421.393,103.017H68.071c-5.554,0-10.599,2.28-14.22,5.929c-3.648,3.649-5.929,8.666-5.929,14.221v248.766    c0,5.527,2.281,10.57,5.929,14.22c3.622,3.649,8.667,5.902,14.22,5.902h353.321c5.527,0,10.572-2.253,14.22-5.875    c3.648-3.677,5.903-8.72,5.903-14.247V123.166c0-5.527-2.255-10.571-5.903-14.221C431.965,105.297,426.92,103.017,421.393,103.017    z" style="fill-rule:evenodd;clip-rule:evenodd;"/></g></g><g id="Layer_1"/></svg>